<svg xmlns="http://www.w3.org/2000/svg" viewBox="0 0 512 512" fill="none">
  <path class="enso-arc" d="M 317.30 118.33 L 315.32 117.11 L 313.33 115.91 L 311.31 114.74 L 309.27 113.61 L 307.21 112.50 L 305.12 111.42 L 303.02 110.38 L 300.89 109.37 L 298.75 108.38 L 296.58 107.44 L 294.40 106.52 L 292.19 105.64 L 289.97 104.79 L 287.73 103.98 L 285.47 103.20 L 283.20 102.46 L 280.91 101.76 L 278.60 101.09 L 276.28 100.46 L 273.94 99.86 L 271.59 99.30 L 269.22 98.87 L 266.84 98.60 L 264.45 98.37 L 262.05 98.17 L 259.65 98.00 L 257.24 97.87 L 254.83 97.79 L 252.42 97.74 L 250.01 97.72 L 247.60 97.75 L 245.19 97.82 L 242.77 97.92 L 240.36 98.07 L 237.95 98.25 L 235.54 98.47 L 233.14 98.74 L 230.73 99.04 L 228.34 99.38 L 225.94 99.76 L 223.56 100.18 L 221.18 100.63 L 218.80 101.13 L 216.44 101.66 L 214.08 102.23 L 211.73 102.85 L 209.39 103.49 L 207.06 104.18 L 204.74 104.90 L 202.43 105.66 L 200.14 106.46 L 197.86 107.30 L 195.59 108.17 L 193.33 109.07 L 191.09 110.01 L 188.86 110.99 L 186.65 112.00 L 184.45 113.05 L 182.27 114.13 L 180.11 115.25 L 177.96 116.39 L 175.83 117.58 L 173.72 118.79 L 171.63 120.04 L 169.55 121.31 L 167.50 122.62 L 165.46 123.96 L 163.45 125.34 L 161.45 126.74 L 159.48 128.17 L 157.52 129.63 L 155.59 131.12 L 153.68 132.64 L 151.79 134.18 L 149.93 135.76 L 148.09 137.36 L 146.27 138.99 L 144.47 140.64 L 142.70 142.32 L 140.95 144.03 L 139.22 145.76 L 137.52 147.52 L 135.84 149.30 L 134.19 151.10 L 132.56 152.93 L 130.96 154.79 L 129.39 156.66 L 127.84 158.56 L 126.31 160.48 L 124.81 162.43 L 123.34 164.39 L 121.90 166.38 L 120.48 168.38 L 119.09 170.41 L 117.73 172.46 L 116.39 174.53 L 115.08 176.62 L 113.80 178.72 L 112.55 180.85 L 111.33 182.99 L 110.14 185.16 L 108.98 187.34 L 107.84 189.54 L 106.74 191.75 L 105.66 193.98 L 104.62 196.23 L 103.61 198.50 L 102.62 200.78 L 101.67 203.08 L 100.75 205.39 L 99.87 207.72 L 99.01 210.06 L 98.19 212.42 L 97.40 214.79 L 96.64 217.17 L 95.92 219.57 L 95.23 221.97 L 94.58 224.39 L 93.96 226.83 L 93.37 229.27 L 92.82 231.73 L 92.30 234.19 L 91.83 236.67 L 91.38 239.15 L 90.98 241.64 L 90.61 244.14 L 90.27 246.65 L 89.98 249.17 L 89.72 251.69 L 89.50 254.22 L 89.32 256.76 L 89.17 259.30 L 89.07 261.85 L 89.00 264.39 L 88.98 266.95 L 88.99 269.50 L 89.04 272.06 L 89.14 274.62 L 89.27 277.18 L 89.45 279.74 L 89.66 282.30 L 89.91 284.85 L 90.21 287.41 L 90.55 289.96 L 90.93 292.51 L 91.34 295.06 L 91.80 297.60 L 92.31 300.13 L 92.85 302.66 L 93.43 305.19 L 94.06 307.70 L 94.73 310.21 L 95.43 312.70 L 96.18 315.19 L 96.97 317.66 L 97.80 320.13 L 98.68 322.58 L 99.59 325.02 L 100.54 327.45 L 101.54 329.86 L 102.57 332.26 L 103.64 334.64 L 104.76 337.00 L 105.91 339.35 L 107.10 341.68 L 108.33 343.99 L 109.60 346.28 L 110.91 348.55 L 112.26 350.80 L 113.64 353.03 L 115.06 355.24 L 116.52 357.42 L 118.01 359.59 L 119.54 361.72 L 121.10 363.84 L 122.70 365.93 L 124.33 367.99 L 126.00 370.03 L 127.70 372.04 L 129.43 374.03 L 131.20 375.98 L 132.99 377.91 L 134.82 379.82 L 136.68 381.69 L 138.57 383.53 L 140.49 385.35 L 142.43 387.13 L 144.41 388.88 L 146.41 390.61 L 148.44 392.30 L 150.50 393.96 L 152.58 395.59 L 154.69 397.19 L 156.83 398.75 L 158.98 400.28 L 161.17 401.78 L 163.37 403.25 L 165.60 404.68 L 167.85 406.08 L 170.12 407.45 L 172.41 408.78 L 174.72 410.08 L 177.06 411.35 L 179.41 412.58 L 181.78 413.77 L 184.16 414.94 L 186.57 416.06 L 188.99 417.15 L 191.43 418.21 L 193.89 419.23 L 196.36 420.22 L 198.84 421.17 L 201.34 422.09 L 203.85 422.97 L 206.38 423.81 L 208.92 424.62 L 211.50 425.30 L 214.08 425.94 L 216.68 426.55 L 219.28 427.11 L 221.89 427.65 L 224.51 428.14 L 227.13 428.60 L 229.76 429.02 L 232.40 429.40 L 235.04 429.75 L 237.69 430.06 L 240.34 430.33 L 242.99 430.57 L 245.65 430.77 L 248.31 430.93 L 250.97 431.05 L 253.64 431.14 L 256.31 431.19 L 258.97 431.20 L 261.64 431.17 L 264.31 431.11 L 266.98 431.01 L 269.64 430.87 L 272.31 430.69 L 274.97 430.48 L 277.63 430.23 L 280.29 429.94 L 282.95 429.61 L 285.60 429.24 L 288.24 428.84 L 290.88 428.40 L 293.52 427.91 L 296.15 427.39 L 298.77 426.84 L 301.39 426.24 L 303.99 425.60 L 306.59 424.93 L 309.18 424.22 L 311.76 423.47 L 314.33 422.68 L 316.89 421.85 L 319.44 420.98 L 321.98 420.08 L 324.50 419.14 L 327.01 418.15 L 329.51 417.13 L 331.99 416.07 L 334.46 414.97 L 336.91 413.84 L 339.34 412.66 L 341.75 411.45 L 344.15 410.20 L 346.53 408.91 L 348.89 407.59 L 351.23 406.22 L 353.55 404.82 L 355.85 403.39 L 358.13 401.91 L 360.38 400.40 L 362.61 398.85 L 364.81 397.27 L 366.99 395.65 L 369.15 394.00 L 371.28 392.31 L 373.38 390.58 L 375.45 388.82 L 377.50 387.03 L 379.52 385.20 L 381.51 383.34 L 383.46 381.45 L 385.39 379.53 L 387.29 377.57 L 388.68 375.16 L 390.13 372.83 L 391.58 370.51 L 393.01 368.18 L 394.41 365.85 L 395.77 363.51 L 397.11 361.16 L 398.51 358.87 L 399.91 356.58 L 401.27 354.27 L 402.60 351.95 L 403.89 349.61 L 405.14 347.26 L 406.36 344.89 L 407.55 342.50 L 408.69 340.10 L 409.80 337.68 L 410.88 335.25 L 411.91 332.81 L 412.91 330.35 L 413.86 327.89 L 414.78 325.41 L 415.66 322.91 L 416.50 320.41 L 417.30 317.90 L 418.06 315.38 L 418.79 312.85 L 419.47 310.31 L 420.12 307.76 L 420.72 305.21 L 421.29 302.65 L 421.81 300.09 L 422.30 297.51 L 422.75 294.94 L 423.16 292.36 L 423.53 289.78 L 423.86 287.19 L 424.15 284.61 L 424.40 282.02 L 424.62 279.43 L 424.79 276.84 L 424.93 274.25 L 425.03 271.66 L 425.09 269.08 L 425.12 266.49 L 425.10 263.91 L 425.05 261.33 L 424.96 258.75 L 424.84 256.18 L 424.68 253.61 L 424.48 251.05 L 424.24 248.49 L 423.97 245.94 L 423.67 243.39 L 423.32 240.85 L 422.95 238.32 L 422.53 235.80 L 422.09 233.28 L 421.60 230.77 L 421.09 228.28 L 420.54 225.79 L 419.95 223.31 L 419.33 220.84 L 418.68 218.38 L 417.99 215.93 L 417.27 213.49 L 416.52 211.06 L 415.74 208.65 L 414.92 206.25 L 414.07 203.86 L 413.19 201.48 L 412.27 199.12 L 410.96 199.60 L 411.40 202.10 L 411.81 204.60 L 412.19 207.10 L 412.52 209.60 L 412.82 212.10 L 413.08 214.59 L 413.31 217.09 L 413.49 219.58 L 413.64 222.06 L 413.76 224.54 L 413.83 227.02 L 413.87 229.49 L 413.87 231.95 L 413.84 234.41 L 413.77 236.86 L 413.66 239.31 L 413.52 241.74 L 413.34 244.17 L 413.13 246.59 L 412.88 249.00 L 412.59 251.40 L 412.27 253.79 L 411.91 256.17 L 411.51 258.53 L 411.09 260.89 L 410.62 263.23 L 410.12 265.56 L 409.58 267.88 L 409.01 270.18 L 408.41 272.47 L 407.77 274.74 L 407.09 277.00 L 406.38 279.24 L 405.64 281.46 L 404.86 283.66 L 404.05 285.85 L 403.20 288.02 L 402.32 290.17 L 401.41 292.30 L 400.46 294.41 L 399.48 296.50 L 398.47 298.56 L 397.43 300.61 L 396.35 302.63 L 395.24 304.63 L 394.10 306.60 L 392.93 308.55 L 391.73 310.47 L 390.49 312.37 L 389.23 314.24 L 387.93 316.08 L 386.61 317.89 L 385.26 319.68 L 383.87 321.44 L 382.46 323.16 L 381.02 324.86 L 379.56 326.52 L 378.06 328.16 L 376.54 329.75 L 374.99 331.32 L 373.42 332.85 L 371.82 334.35 L 370.19 335.81 L 368.54 337.23 L 366.88 338.63 L 365.30 340.07 L 363.69 341.47 L 362.04 342.83 L 360.37 344.15 L 358.65 345.41 L 356.89 346.61 L 355.00 347.68 L 353.57 349.15 L 352.10 350.59 L 350.62 352.01 L 349.11 353.40 L 347.58 354.77 L 346.03 356.11 L 344.46 357.42 L 342.86 358.71 L 341.25 359.97 L 339.62 361.20 L 337.96 362.41 L 336.29 363.59 L 334.60 364.74 L 332.90 365.86 L 331.17 366.96 L 329.43 368.02 L 327.67 369.06 L 325.90 370.07 L 324.12 371.05 L 322.32 372.00 L 320.50 372.93 L 318.67 373.82 L 316.83 374.68 L 314.98 375.52 L 313.12 376.32 L 311.25 377.10 L 309.36 377.85 L 307.47 378.57 L 305.56 379.26 L 303.65 379.92 L 301.73 380.55 L 299.80 381.15 L 297.86 381.72 L 295.92 382.27 L 293.97 382.78 L 292.01 383.27 L 290.05 383.72 L 288.08 384.15 L 286.11 384.55 L 284.14 384.93 L 282.16 385.27 L 280.17 385.58 L 278.19 385.87 L 276.20 386.13 L 274.20 386.36 L 272.21 386.56 L 270.22 386.74 L 268.22 386.89 L 266.22 387.00 L 264.22 387.10 L 262.22 387.16 L 260.22 387.20 L 258.23 387.21 L 256.23 387.19 L 254.23 387.14 L 252.24 387.07 L 250.24 386.97 L 248.25 386.84 L 246.26 386.69 L 244.28 386.51 L 242.29 386.30 L 240.31 386.07 L 238.33 385.81 L 236.36 385.52 L 234.39 385.20 L 232.43 384.86 L 230.47 384.49 L 228.51 384.09 L 226.56 383.67 L 224.62 383.22 L 222.68 382.74 L 220.75 382.24 L 218.80 381.80 L 216.86 381.34 L 214.91 380.84 L 212.98 380.32 L 211.05 379.77 L 209.12 379.19 L 207.20 378.59 L 205.29 377.95 L 203.39 377.29 L 201.49 376.60 L 199.60 375.88 L 197.72 375.13 L 195.85 374.36 L 193.99 373.55 L 192.14 372.72 L 190.30 371.86 L 188.48 370.96 L 186.66 370.05 L 184.86 369.10 L 183.06 368.12 L 181.29 367.12 L 179.52 366.08 L 177.77 365.02 L 176.04 363.93 L 174.32 362.81 L 172.62 361.67 L 170.93 360.49 L 169.26 359.29 L 167.61 358.06 L 165.98 356.80 L 164.36 355.52 L 162.77 354.21 L 161.19 352.87 L 159.64 351.51 L 158.11 350.11 L 156.59 348.70 L 155.11 347.25 L 153.64 345.78 L 152.20 344.29 L 150.78 342.77 L 149.38 341.23 L 148.01 339.66 L 146.67 338.07 L 145.35 336.46 L 144.06 334.82 L 142.80 333.16 L 141.56 331.48 L 140.35 329.77 L 139.17 328.05 L 138.01 326.30 L 136.89 324.54 L 135.79 322.75 L 134.73 320.95 L 133.69 319.13 L 132.69 317.29 L 131.71 315.43 L 130.77 313.56 L 129.86 311.67 L 128.98 309.76 L 128.13 307.84 L 127.31 305.90 L 126.53 303.95 L 125.77 301.99 L 125.05 300.01 L 124.37 298.02 L 123.71 296.02 L 123.09 294.01 L 122.50 291.99 L 121.95 289.96 L 121.43 287.92 L 120.94 285.87 L 120.48 283.82 L 120.06 281.75 L 119.67 279.68 L 119.32 277.61 L 118.99 275.53 L 118.71 273.44 L 118.45 271.35 L 118.23 269.25 L 118.04 267.15 L 117.88 265.05 L 117.76 262.95 L 117.66 260.84 L 117.61 258.74 L 117.58 256.63 L 117.59 254.52 L 117.62 252.42 L 117.69 250.31 L 117.79 248.21 L 117.93 246.10 L 118.09 244.00 L 118.29 241.90 L 118.51 239.81 L 118.77 237.72 L 119.06 235.63 L 119.38 233.55 L 119.73 231.47 L 120.11 229.39 L 120.51 227.33 L 120.95 225.26 L 121.42 223.21 L 121.92 221.16 L 122.44 219.12 L 123.00 217.08 L 123.58 215.05 L 124.20 213.03 L 124.84 211.02 L 125.51 209.02 L 126.20 207.03 L 126.93 205.04 L 127.68 203.07 L 128.46 201.10 L 129.27 199.15 L 130.11 197.21 L 130.97 195.27 L 131.86 193.35 L 132.77 191.44 L 133.72 189.54 L 134.69 187.66 L 135.68 185.79 L 136.71 183.93 L 137.75 182.08 L 138.83 180.25 L 139.93 178.43 L 141.06 176.62 L 142.21 174.83 L 143.39 173.06 L 144.59 171.30 L 145.82 169.55 L 147.07 167.83 L 148.35 166.12 L 149.66 164.42 L 150.99 162.75 L 152.34 161.09 L 153.72 159.45 L 155.12 157.82 L 156.55 156.22 L 158.00 154.64 L 159.48 153.07 L 160.98 151.53 L 162.50 150.01 L 164.05 148.51 L 165.62 147.03 L 167.21 145.57 L 168.83 144.14 L 170.47 142.73 L 172.13 141.34 L 173.82 139.98 L 175.52 138.64 L 177.25 137.33 L 179.00 136.04 L 180.77 134.78 L 182.56 133.54 L 184.38 132.33 L 186.21 131.15 L 188.06 130.00 L 189.93 128.88 L 191.82 127.78 L 193.73 126.72 L 195.66 125.68 L 197.61 124.68 L 199.57 123.70 L 201.55 122.76 L 203.55 121.85 L 205.56 120.97 L 207.59 120.12 L 209.63 119.31 L 211.69 118.53 L 213.76 117.79 L 215.84 117.07 L 217.94 116.39 L 220.05 115.75 L 222.17 115.14 L 224.30 114.57 L 226.44 114.03 L 228.59 113.53 L 230.75 113.07 L 232.92 112.64 L 235.10 112.25 L 237.28 111.89 L 239.47 111.58 L 241.67 111.30 L 243.87 111.05 L 246.08 110.85 L 248.29 110.68 L 250.50 110.55 L 252.71 110.46 L 254.93 110.40 L 257.14 110.39 L 259.36 110.41 L 261.58 110.48 L 263.79 110.58 L 266.00 110.72 L 268.21 110.90 L 270.43 111.00 L 272.66 111.05 L 274.89 111.13 L 277.12 111.26 L 279.35 111.41 L 281.58 111.61 L 283.80 111.84 L 286.03 112.11 L 288.26 112.41 L 290.48 112.75 L 292.70 113.13 L 294.91 113.54 L 297.12 113.99 L 299.33 114.48 L 301.53 115.00 L 303.72 115.55 L 305.91 116.14 L 308.09 116.77 L 310.26 117.42 L 312.42 118.12 L 314.58 118.85 L 316.73 119.61 Z" fill="currentColor"></path>
  <circle class="enso-dot" cx="256" cy="225" r="17.5" fill="var(--enso-dot, currentColor)"></circle>
  <path class="enso-bar" d="M 218.00 284.40 L 219.90 282.55 L 221.80 281.77 L 223.70 281.18 L 225.60 280.70 L 227.50 280.29 L 229.40 279.94 L 231.30 279.63 L 233.20 279.35 L 235.10 279.10 L 237.00 278.88 L 238.90 278.69 L 240.80 278.51 L 242.70 278.35 L 244.60 278.21 L 246.50 278.09 L 248.40 277.99 L 250.30 277.89 L 252.20 277.82 L 254.10 277.75 L 256.00 277.70 L 257.90 277.66 L 259.80 277.64 L 261.70 277.62 L 263.60 277.62 L 265.50 277.63 L 267.40 277.66 L 269.30 277.70 L 271.20 277.75 L 273.10 277.82 L 275.00 277.91 L 276.90 278.01 L 278.80 278.14 L 280.70 278.29 L 282.60 278.47 L 284.50 278.69 L 286.40 278.95 L 288.30 279.28 L 290.20 279.71 L 292.10 280.33 L 294.00 282.00 L 294.00 283.20 L 292.10 285.47 L 290.20 286.68 L 288.30 287.67 L 286.40 288.54 L 284.50 289.32 L 282.60 290.03 L 280.70 290.69 L 278.80 291.28 L 276.90 291.83 L 275.00 292.33 L 273.10 292.78 L 271.20 293.19 L 269.30 293.55 L 267.40 293.87 L 265.50 294.15 L 263.60 294.39 L 261.70 294.58 L 259.80 294.73 L 257.90 294.83 L 256.00 294.90 L 254.10 294.92 L 252.20 294.91 L 250.30 294.85 L 248.40 294.75 L 246.50 294.61 L 244.60 294.43 L 242.70 294.21 L 240.80 293.95 L 238.90 293.65 L 237.00 293.31 L 235.10 292.92 L 233.20 292.49 L 231.30 292.02 L 229.40 291.50 L 227.50 290.92 L 225.60 290.29 L 223.70 289.57 L 221.80 288.73 L 219.90 287.70 L 218.00 285.60 Z" fill="currentColor"></path>
</svg>