<svg xmlns="http://www.w3.org/2000/svg" viewBox="0 0 512 512" fill="none">
  <path class="enso-arc" d="M 317.25 118.42 L 315.28 117.22 L 313.27 116.04 L 311.25 114.90 L 309.20 113.78 L 307.14 112.70 L 305.05 111.64 L 302.94 110.62 L 300.81 109.63 L 298.66 108.67 L 296.50 107.75 L 294.31 106.85 L 292.11 105.99 L 289.88 105.17 L 287.64 104.38 L 285.39 103.63 L 283.12 102.91 L 280.83 102.22 L 278.53 101.58 L 276.21 100.97 L 273.88 100.40 L 271.54 99.86 L 269.18 99.45 L 266.80 99.18 L 264.41 98.95 L 262.03 98.75 L 259.63 98.59 L 257.24 98.47 L 254.84 98.39 L 252.44 98.34 L 250.03 98.33 L 247.63 98.37 L 245.23 98.44 L 242.82 98.55 L 240.42 98.70 L 238.02 98.88 L 235.62 99.11 L 233.23 99.38 L 230.84 99.68 L 228.45 100.03 L 226.07 100.41 L 223.69 100.83 L 221.32 101.29 L 218.96 101.79 L 216.61 102.33 L 214.26 102.90 L 211.92 103.52 L 209.60 104.17 L 207.28 104.86 L 204.97 105.58 L 202.68 106.34 L 200.39 107.14 L 198.12 107.98 L 195.87 108.85 L 193.62 109.76 L 191.39 110.70 L 189.18 111.68 L 186.98 112.69 L 184.80 113.74 L 182.63 114.82 L 180.48 115.94 L 178.35 117.09 L 176.23 118.27 L 174.13 119.48 L 172.05 120.73 L 169.99 122.00 L 167.95 123.31 L 165.93 124.65 L 163.93 126.02 L 161.95 127.42 L 159.99 128.85 L 158.05 130.31 L 156.13 131.79 L 154.24 133.31 L 152.37 134.85 L 150.51 136.42 L 148.69 138.02 L 146.88 139.64 L 145.10 141.29 L 143.34 142.97 L 141.61 144.67 L 139.89 146.40 L 138.21 148.15 L 136.55 149.92 L 134.91 151.72 L 133.30 153.55 L 131.71 155.39 L 130.15 157.26 L 128.61 159.15 L 127.10 161.07 L 125.62 163.00 L 124.16 164.96 L 122.73 166.94 L 121.33 168.93 L 119.95 170.95 L 118.61 172.99 L 117.28 175.05 L 115.99 177.13 L 114.73 179.22 L 113.49 181.34 L 112.28 183.47 L 111.10 185.62 L 109.95 187.79 L 108.83 189.98 L 107.74 192.18 L 106.68 194.40 L 105.65 196.64 L 104.65 198.89 L 103.68 201.16 L 102.74 203.44 L 101.84 205.74 L 100.96 208.06 L 100.12 210.38 L 99.31 212.73 L 98.53 215.08 L 97.78 217.45 L 97.07 219.83 L 96.40 222.22 L 95.75 224.63 L 95.14 227.04 L 94.57 229.47 L 94.03 231.91 L 93.52 234.35 L 93.05 236.81 L 92.62 239.28 L 92.22 241.75 L 91.86 244.23 L 91.54 246.73 L 91.25 249.22 L 91.00 251.73 L 90.79 254.24 L 90.62 256.75 L 90.48 259.27 L 90.38 261.80 L 90.32 264.33 L 90.30 266.86 L 90.32 269.39 L 90.38 271.93 L 90.48 274.47 L 90.62 277.01 L 90.80 279.54 L 91.02 282.08 L 91.28 284.62 L 91.58 287.15 L 91.92 289.68 L 92.30 292.21 L 92.72 294.73 L 93.19 297.25 L 93.69 299.76 L 94.23 302.27 L 94.82 304.77 L 95.45 307.26 L 96.11 309.74 L 96.82 312.21 L 97.57 314.67 L 98.36 317.13 L 99.19 319.57 L 100.06 322.00 L 100.97 324.41 L 101.93 326.81 L 102.92 329.20 L 103.95 331.57 L 105.02 333.93 L 106.13 336.27 L 107.28 338.59 L 108.46 340.89 L 109.69 343.18 L 110.95 345.45 L 112.26 347.69 L 113.60 349.92 L 114.97 352.12 L 116.38 354.31 L 117.83 356.47 L 119.32 358.60 L 120.84 360.72 L 122.39 362.81 L 123.98 364.87 L 125.60 366.91 L 127.26 368.92 L 128.95 370.91 L 130.67 372.87 L 132.42 374.80 L 134.21 376.71 L 136.02 378.59 L 137.87 380.44 L 139.74 382.26 L 141.65 384.05 L 143.58 385.81 L 145.54 387.54 L 147.53 389.23 L 149.54 390.90 L 151.59 392.54 L 153.65 394.15 L 155.74 395.72 L 157.86 397.26 L 160.00 398.77 L 162.16 400.25 L 164.35 401.70 L 166.56 403.11 L 168.79 404.49 L 171.04 405.83 L 173.31 407.14 L 175.60 408.42 L 177.91 409.66 L 180.24 410.87 L 182.59 412.05 L 184.95 413.19 L 187.33 414.30 L 189.73 415.37 L 192.15 416.41 L 194.58 417.41 L 197.02 418.38 L 199.48 419.31 L 201.96 420.21 L 204.45 421.07 L 206.95 421.90 L 209.46 422.69 L 212.01 423.36 L 214.56 424.00 L 217.13 424.60 L 219.70 425.16 L 222.28 425.68 L 224.87 426.17 L 227.46 426.63 L 230.06 427.04 L 232.67 427.42 L 235.28 427.76 L 237.90 428.07 L 240.52 428.34 L 243.14 428.57 L 245.77 428.77 L 248.40 428.93 L 251.03 429.05 L 253.67 429.14 L 256.30 429.19 L 258.94 429.20 L 261.58 429.18 L 264.21 429.11 L 266.85 429.01 L 269.49 428.88 L 272.12 428.70 L 274.76 428.49 L 277.39 428.24 L 280.01 427.96 L 282.64 427.63 L 285.26 427.27 L 287.87 426.87 L 290.49 426.43 L 293.09 425.96 L 295.69 425.45 L 298.28 424.90 L 300.87 424.31 L 303.45 423.68 L 306.02 423.02 L 308.58 422.31 L 311.13 421.57 L 313.67 420.79 L 316.20 419.97 L 318.72 419.12 L 321.23 418.22 L 323.73 417.29 L 326.21 416.32 L 328.68 415.31 L 331.13 414.27 L 333.57 413.18 L 335.99 412.06 L 338.40 410.90 L 340.79 409.70 L 343.16 408.46 L 345.51 407.19 L 347.85 405.88 L 350.16 404.53 L 352.46 403.15 L 354.73 401.73 L 356.98 400.27 L 359.21 398.78 L 361.41 397.25 L 363.59 395.68 L 365.75 394.08 L 367.88 392.45 L 369.99 390.78 L 372.07 389.07 L 374.12 387.34 L 376.14 385.56 L 378.14 383.76 L 380.10 381.92 L 382.04 380.05 L 383.94 378.15 L 385.82 376.21 L 387.23 373.86 L 388.70 371.58 L 390.16 369.31 L 391.60 367.03 L 393.01 364.74 L 394.39 362.44 L 395.73 360.13 L 397.15 357.88 L 398.55 355.63 L 399.92 353.36 L 401.26 351.08 L 402.57 348.78 L 403.84 346.46 L 405.07 344.12 L 406.27 341.77 L 407.43 339.40 L 408.55 337.02 L 409.64 334.62 L 410.69 332.21 L 411.70 329.78 L 412.67 327.34 L 413.61 324.89 L 414.50 322.43 L 415.36 319.96 L 416.18 317.47 L 416.96 314.97 L 417.70 312.47 L 418.40 309.95 L 419.07 307.43 L 419.69 304.90 L 420.28 302.37 L 420.82 299.82 L 421.33 297.27 L 421.80 294.72 L 422.23 292.16 L 422.62 289.60 L 422.97 287.03 L 423.29 284.46 L 423.56 281.89 L 423.80 279.32 L 424.00 276.74 L 424.16 274.17 L 424.28 271.59 L 424.36 269.02 L 424.41 266.45 L 424.42 263.88 L 424.39 261.31 L 424.33 258.74 L 424.22 256.18 L 424.08 253.62 L 423.91 251.07 L 423.70 248.52 L 423.45 245.97 L 423.17 243.43 L 422.85 240.90 L 422.49 238.37 L 422.11 235.85 L 421.68 233.34 L 421.22 230.83 L 420.73 228.34 L 420.20 225.85 L 419.64 223.37 L 419.04 220.90 L 418.41 218.44 L 417.75 215.99 L 417.05 213.55 L 416.32 211.12 L 415.56 208.70 L 414.76 206.30 L 413.93 203.90 L 413.07 201.52 L 412.18 199.16 L 411.05 199.57 L 411.52 202.06 L 411.95 204.56 L 412.35 207.05 L 412.70 209.55 L 413.02 212.04 L 413.31 214.54 L 413.55 217.03 L 413.76 219.51 L 413.93 222.00 L 414.07 224.48 L 414.17 226.95 L 414.23 229.43 L 414.26 231.89 L 414.25 234.35 L 414.20 236.81 L 414.12 239.26 L 414.00 241.70 L 413.84 244.13 L 413.65 246.56 L 413.42 248.97 L 413.16 251.38 L 412.86 253.78 L 412.52 256.17 L 412.15 258.54 L 411.75 260.91 L 411.30 263.26 L 410.83 265.61 L 410.31 267.93 L 409.77 270.25 L 409.18 272.55 L 408.56 274.84 L 407.91 277.11 L 407.22 279.37 L 406.50 281.61 L 405.75 283.83 L 404.95 286.03 L 404.13 288.22 L 403.27 290.39 L 402.38 292.54 L 401.45 294.67 L 400.49 296.78 L 399.50 298.87 L 398.48 300.94 L 397.42 302.98 L 396.33 305.00 L 395.21 307.00 L 394.05 308.98 L 392.87 310.93 L 391.65 312.85 L 390.40 314.75 L 389.12 316.62 L 387.82 318.47 L 386.48 320.28 L 385.11 322.07 L 383.72 323.83 L 382.29 325.56 L 380.84 327.25 L 379.36 328.92 L 377.85 330.56 L 376.31 332.16 L 374.75 333.72 L 373.16 335.26 L 371.55 336.76 L 369.90 338.22 L 368.26 339.66 L 366.69 341.14 L 365.09 342.58 L 363.45 343.99 L 361.79 345.35 L 360.09 346.66 L 358.34 347.91 L 356.47 349.04 L 355.01 350.53 L 353.53 351.99 L 352.02 353.43 L 350.50 354.85 L 348.94 356.23 L 347.37 357.59 L 345.77 358.93 L 344.16 360.24 L 342.52 361.52 L 340.86 362.77 L 339.18 364.00 L 337.49 365.19 L 335.77 366.36 L 334.04 367.50 L 332.29 368.61 L 330.53 369.70 L 328.75 370.75 L 326.95 371.78 L 325.14 372.77 L 323.31 373.74 L 321.47 374.68 L 319.61 375.58 L 317.75 376.46 L 315.87 377.31 L 313.98 378.13 L 312.08 378.92 L 310.16 379.68 L 308.24 380.41 L 306.31 381.11 L 304.37 381.78 L 302.42 382.42 L 300.46 383.04 L 298.49 383.62 L 296.52 384.17 L 294.54 384.70 L 292.56 385.19 L 290.57 385.66 L 288.57 386.09 L 286.57 386.50 L 284.56 386.88 L 282.55 387.23 L 280.54 387.55 L 278.52 387.84 L 276.50 388.11 L 274.48 388.34 L 272.46 388.55 L 270.43 388.73 L 268.40 388.88 L 266.38 389.00 L 264.35 389.09 L 262.32 389.16 L 260.29 389.20 L 258.26 389.21 L 256.23 389.19 L 254.21 389.14 L 252.18 389.07 L 250.16 388.97 L 248.13 388.84 L 246.11 388.69 L 244.10 388.50 L 242.08 388.29 L 240.07 388.05 L 238.06 387.79 L 236.06 387.49 L 234.06 387.17 L 232.07 386.83 L 230.08 386.45 L 228.09 386.05 L 226.11 385.62 L 224.14 385.16 L 222.18 384.68 L 220.22 384.17 L 218.24 383.71 L 216.26 383.23 L 214.30 382.72 L 212.33 382.18 L 210.38 381.61 L 208.43 381.01 L 206.49 380.39 L 204.55 379.74 L 202.62 379.05 L 200.70 378.34 L 198.79 377.60 L 196.89 376.84 L 195.00 376.04 L 193.12 375.21 L 191.25 374.36 L 189.39 373.48 L 187.54 372.56 L 185.70 371.62 L 183.88 370.65 L 182.07 369.65 L 180.27 368.63 L 178.49 367.57 L 176.72 366.49 L 174.97 365.37 L 173.23 364.23 L 171.51 363.06 L 169.81 361.87 L 168.13 360.64 L 166.46 359.39 L 164.81 358.11 L 163.19 356.80 L 161.58 355.46 L 159.99 354.10 L 158.42 352.71 L 156.88 351.29 L 155.36 349.85 L 153.86 348.38 L 152.38 346.89 L 150.93 345.37 L 149.50 343.83 L 148.09 342.26 L 146.71 340.67 L 145.36 339.05 L 144.04 337.41 L 142.74 335.75 L 141.46 334.07 L 140.22 332.36 L 139.00 330.63 L 137.81 328.88 L 136.66 327.11 L 135.53 325.32 L 134.43 323.51 L 133.36 321.68 L 132.32 319.84 L 131.31 317.97 L 130.33 316.09 L 129.39 314.19 L 128.47 312.28 L 127.59 310.35 L 126.74 308.40 L 125.92 306.44 L 125.14 304.47 L 124.38 302.48 L 123.66 300.48 L 122.98 298.47 L 122.33 296.44 L 121.71 294.41 L 121.12 292.37 L 120.57 290.31 L 120.05 288.25 L 119.56 286.18 L 119.11 284.10 L 118.69 282.01 L 118.31 279.92 L 117.96 277.82 L 117.64 275.72 L 117.36 273.61 L 117.11 271.50 L 116.89 269.38 L 116.70 267.26 L 116.55 265.14 L 116.44 263.02 L 116.35 260.89 L 116.30 258.76 L 116.28 256.64 L 116.29 254.51 L 116.34 252.38 L 116.42 250.26 L 116.53 248.13 L 116.67 246.01 L 116.84 243.89 L 117.05 241.78 L 117.29 239.66 L 117.55 237.55 L 117.85 235.45 L 118.18 233.35 L 118.54 231.25 L 118.93 229.16 L 119.35 227.08 L 119.80 225.00 L 120.28 222.93 L 120.79 220.86 L 121.33 218.81 L 121.89 216.76 L 122.49 214.71 L 123.12 212.68 L 123.77 210.66 L 124.45 208.64 L 125.16 206.63 L 125.90 204.64 L 126.67 202.65 L 127.46 200.67 L 128.28 198.71 L 129.13 196.75 L 130.01 194.81 L 130.91 192.87 L 131.84 190.95 L 132.80 189.04 L 133.78 187.15 L 134.79 185.27 L 135.83 183.40 L 136.89 181.54 L 137.98 179.70 L 139.09 177.87 L 140.23 176.06 L 141.40 174.26 L 142.59 172.47 L 143.81 170.71 L 145.06 168.96 L 146.32 167.22 L 147.62 165.50 L 148.94 163.80 L 150.28 162.12 L 151.65 160.46 L 153.04 158.81 L 154.46 157.18 L 155.91 155.57 L 157.37 153.99 L 158.86 152.42 L 160.38 150.87 L 161.92 149.35 L 163.48 147.84 L 165.06 146.36 L 166.67 144.90 L 168.30 143.46 L 169.96 142.05 L 171.63 140.66 L 173.33 139.29 L 175.05 137.95 L 176.80 136.64 L 178.56 135.35 L 180.35 134.09 L 182.15 132.85 L 183.98 131.64 L 185.82 130.46 L 187.69 129.31 L 189.57 128.19 L 191.48 127.09 L 193.40 126.03 L 195.34 124.99 L 197.30 123.99 L 199.28 123.02 L 201.27 122.08 L 203.28 121.17 L 205.30 120.29 L 207.34 119.44 L 209.40 118.63 L 211.47 117.86 L 213.55 117.11 L 215.65 116.40 L 217.76 115.73 L 219.88 115.09 L 222.01 114.48 L 224.15 113.91 L 226.31 113.38 L 228.47 112.88 L 230.64 112.42 L 232.82 112.00 L 235.01 111.61 L 237.20 111.26 L 239.40 110.94 L 241.61 110.67 L 243.82 110.43 L 246.03 110.23 L 248.25 110.07 L 250.47 109.94 L 252.70 109.85 L 254.92 109.80 L 257.15 109.79 L 259.37 109.82 L 261.60 109.89 L 263.82 110.00 L 266.04 110.14 L 268.26 110.33 L 270.49 110.44 L 272.72 110.51 L 274.95 110.62 L 277.19 110.76 L 279.42 110.95 L 281.65 111.16 L 283.89 111.42 L 286.11 111.71 L 288.34 112.04 L 290.56 112.40 L 292.78 112.80 L 295.00 113.23 L 297.21 113.71 L 299.41 114.21 L 301.61 114.75 L 303.80 115.33 L 305.98 115.94 L 308.15 116.59 L 310.32 117.27 L 312.48 117.99 L 314.63 118.73 L 316.77 119.52 Z" fill="currentColor"></path>
  <circle class="enso-dot" cx="256" cy="238" r="11.5" fill="var(--enso-dot, currentColor)"></circle>
  <path class="enso-bar" d="M 229.00 279.60 L 230.35 278.34 L 231.70 277.80 L 233.05 277.41 L 234.40 277.09 L 235.75 276.81 L 237.10 276.58 L 238.45 276.37 L 239.80 276.18 L 241.15 276.02 L 242.50 275.87 L 243.85 275.74 L 245.20 275.63 L 246.55 275.52 L 247.90 275.43 L 249.25 275.35 L 250.60 275.28 L 251.95 275.21 L 253.30 275.16 L 254.65 275.11 L 256.00 275.07 L 257.35 275.05 L 258.70 275.02 L 260.05 275.01 L 261.40 275.00 L 262.75 275.00 L 264.10 275.01 L 265.45 275.03 L 266.80 275.06 L 268.15 275.10 L 269.50 275.14 L 270.85 275.20 L 272.20 275.28 L 273.55 275.37 L 274.90 275.48 L 276.25 275.61 L 277.60 275.78 L 278.95 275.98 L 280.30 276.26 L 281.65 276.67 L 283.00 277.80 L 283.00 278.60 L 281.65 280.18 L 280.30 281.03 L 278.95 281.73 L 277.60 282.34 L 276.25 282.90 L 274.90 283.40 L 273.55 283.86 L 272.20 284.29 L 270.85 284.68 L 269.50 285.03 L 268.15 285.36 L 266.80 285.65 L 265.45 285.91 L 264.10 286.14 L 262.75 286.33 L 261.40 286.50 L 260.05 286.64 L 258.70 286.75 L 257.35 286.83 L 256.00 286.87 L 254.65 286.89 L 253.30 286.88 L 251.95 286.84 L 250.60 286.78 L 249.25 286.68 L 247.90 286.55 L 246.55 286.40 L 245.20 286.22 L 243.85 286.01 L 242.50 285.77 L 241.15 285.50 L 239.80 285.20 L 238.45 284.87 L 237.10 284.50 L 235.75 284.10 L 234.40 283.65 L 233.05 283.15 L 231.70 282.57 L 230.35 281.85 L 229.00 280.40 Z" fill="currentColor"></path>
</svg>